<?xml version="1.0" standalone="no"?>
<!DOCTYPE svg PUBLIC "-//W3C//DTD SVG 1.1//EN" "http://www.w3.org/Graphics/SVG/1.1/DTD/svg11.dtd" >
<svg>
<metadata>
Created by FontForge 20090622 at Tue Aug 30 19:36:16 2016
 By deploy user
Copyright (c) Gophmann A, 2009. All rights reserved.
</metadata>
<defs>
<font id="EvgeniaDeco" horiz-adv-x="690" >
  <font-face 
    font-family="Evgenia Deco"
    font-weight="400"
    font-stretch="normal"
    units-per-em="1000"
    panose-1="2 0 4 0 0 0 0 0 0 0"
    ascent="800"
    descent="-200"
    x-height="718"
    cap-height="717"
    bbox="-69 -225 929 917"
    underline-thickness="20"
    underline-position="-123"
    unicode-range="U+0020-U+2122"
  />
<missing-glyph horiz-adv-x="500" 
d="M63 0v800h375v-800h-375zM125 63h250v675h-250v-675z" />
    <glyph glyph-name=".notdef" horiz-adv-x="500" 
d="M63 0v800h375v-800h-375zM125 63h250v675h-250v-675z" />
    <glyph glyph-name="space" unicode=" " horiz-adv-x="216" 
 />
    <glyph glyph-name="exclam" unicode="!" horiz-adv-x="188" 
d="M129 718l-14 -564h-35l-14 564h63zM157 55q0 -24 -18 -41.5t-42 -17.5q-25 0 -43 17.5t-18 41.5q0 23 18 40.5t43 17.5q24 0 42 -17.5t18 -40.5z" />
    <glyph glyph-name="quotedbl" unicode="&#x22;" horiz-adv-x="176" 
d="M146 598h-41v120h41v-120zM71 598h-41v120h41v-120z" />
    <glyph glyph-name="numbersign" unicode="#" horiz-adv-x="319" 
d="M286 271h-81l-40 -271h-43l41 271h-29l-40 -271h-43l41 271h-60v40h66l6 47h-72v41h79l48 319h42l-48 -319h29l48 319h41l-47 -319h62v-41h-68l-7 -47h75v-40zM176 358h-29l-8 -47h30z" />
    <glyph glyph-name="dollar" unicode="$" horiz-adv-x="513" 
d="M479 282q0 -96 -68 -163.5t-164 -67.5q-41 0 -75 11l-31 -100l-40 12l34 104q-55 30 -87.5 85.5t-32.5 118.5h42q0 -107 90 -162l84 265q-55 17 -89 62.5t-34 103.5q0 72 51.5 123t123.5 51q26 0 52 -8l14 45l40 -13l-16 -49q84 -51 84 -149h-41q0 69 -56 107l-47 -149
q76 -18 121 -82.5t45 -144.5zM323 677q-18 7 -40 7q-55 0 -94 -39t-39 -94q0 -44 26 -79t67 -48zM437 282q0 67 -35 119q-38 54 -101 69l-116 -368q29 -10 62 -10q79 0 134.5 55.5t55.5 134.5z" />
    <glyph glyph-name="percent" unicode="%" horiz-adv-x="340" 
d="M294 718l-162 -718h-43l149 659q-22 -10 -41 -10q-23 0 -50 10t-37 10q-32 0 -32 -33q0 -32 33 -32q25 0 34 31l40 -10q-16 -60 -75 -60q-29 0 -51.5 21t-22.5 50q0 28 21 50t51 22q20 0 47 -10.5t37 -10.5q24 0 66 31h36zM331 68q0 -29 -22 -50.5t-53 -21.5t-53.5 21.5
t-22.5 50.5q0 31 22.5 52.5t53.5 21.5t53 -21.5t22 -52.5zM290 68q0 14 -10 24t-24 10t-24 -10t-10 -24q0 -32 34 -32t34 32z" />
    <glyph glyph-name="ampersand" unicode="&#x26;" horiz-adv-x="547" 
d="M508 272h-60v-158q0 -69 -50 -95q-36 -19 -110 -19h-223l133 342q-71 10 -116.5 64.5t-45.5 126.5q0 78 55.5 134.5t133.5 56.5q84 0 134 -50t50 -127q0 -50 -32.5 -86.5t-79.5 -36.5q-48 0 -79 31t-31 78q0 65 57 97l20 -35q-37 -21 -37 -62q0 -29 20 -49t50 -20
q31 0 51.5 25t20.5 58q0 59 -39.5 97.5t-104.5 38.5q-61 0 -104.5 -44.5t-43.5 -105.5q0 -71 51.5 -117t125.5 -42l-126 -331h160q54 0 76 8q43 17 43 68v153h-61v39h61v75h41v-75h60v-39z" />
    <glyph glyph-name="quotesingle" unicode="'" horiz-adv-x="101" 
d="M71 598h-41v120h41v-120z" />
    <glyph glyph-name="parenleft" unicode="(" horiz-adv-x="232" 
d="M217 -22l-31 -26q-75 62 -117 175q-39 106 -39 229q0 124 39 230q42 113 117 174l31 -26q-126 -119 -126 -378t126 -378z" />
    <glyph glyph-name="parenright" unicode=")" horiz-adv-x="232" 
d="M194 356q0 -123 -39 -229q-42 -113 -117 -175l-31 26q126 119 126 378t-126 378l31 26q75 -61 117 -174q39 -106 39 -230z" />
    <glyph glyph-name="asterisk" unicode="*" horiz-adv-x="219" 
d="M194 613l-50 5l41 -28l-24 -30l-35 40l3 -50h-39l3 50l-35 -40l-24 30l41 28l-50 -5v42l50 -5l-41 28l24 30l35 -40l-3 50h39l-3 -50l35 40l24 -30l-41 -28l50 5v-42z" />
    <glyph glyph-name="plus" unicode="+" horiz-adv-x="329" 
d="M302 270h-117v-107h-41v107h-117v38h117v107h41v-107h117v-38z" />
    <glyph glyph-name="comma" unicode="," horiz-adv-x="161" 
d="M139 54q0 -18 -15 -38l-58 -78h-48l45 61q-41 12 -41 55q0 25 17 42t42 17q24 0 41 -17t17 -42z" />
    <glyph glyph-name="hyphen" unicode="-" horiz-adv-x="256" 
d="M229 268h-202v42h202v-42z" />
    <glyph glyph-name="period" unicode="." horiz-adv-x="161" 
d="M139 54q0 -24 -17 -41t-42 -17q-24 0 -41 17t-17 41q0 25 17 42t41 17q25 0 42 -17t17 -42z" />
    <glyph glyph-name="slash" unicode="/" horiz-adv-x="372" 
d="M356 733l-308 -785l-38 16l308 786z" />
    <glyph glyph-name="zero" unicode="0" horiz-adv-x="448" 
d="M421 364q0 -118 -46 -216q-53 -113 -151 -157q-43 9 -95 66l-22 -57h-44l37 95q-73 108 -73 262q0 119 46 217q53 113 151 157q53 -22 95 -70l22 57h44l-37 -94q73 -116 73 -260zM303 619q-37 46 -79 67q-77 -40 -119 -142q-37 -87 -37 -187q0 -118 51 -213zM380 357
q0 123 -51 218l-184 -474q36 -45 79 -67q69 29 114 133q42 94 42 190z" />
    <glyph glyph-name="one" unicode="1" horiz-adv-x="188" 
d="M128 0h-41v580q-19 -28 -51 -51l-27 30q78 57 78 159h41v-718z" />
    <glyph glyph-name="two" unicode="2" horiz-adv-x="390" 
d="M384 533q0 -51 -25 -108q-13 -31 -53 -98l-168 -286h143v-41h-215l205 350q71 121 71 183t-43 105.5t-104 43.5t-104 -43t-43 -104t43 -104t104 -43v-41q-78 0 -133.5 55t-55.5 133t55.5 133.5t133.5 55.5t133.5 -56.5t55.5 -134.5z" />
    <glyph glyph-name="three" unicode="3" horiz-adv-x="314" 
d="M307 259q0 -109 -62.5 -187t-152.5 -78q-52 0 -105 34l26 32q40 -26 79 -26q70 0 121 65t51 160q0 98 -56.5 162t-151.5 64l125 193h-136v40h211l-130 -201q79 -16 130 -88t51 -170z" />
    <glyph glyph-name="four" unicode="4" horiz-adv-x="309" 
d="M264 718l-214 -485h162v125h42v-358h-42v193h-224l239 541z" />
    <glyph glyph-name="five" unicode="5" horiz-adv-x="411" 
d="M404 263q0 -111 -71 -189t-172 -78q-103 0 -181 90l33 24q67 -73 148 -73q83 0 142.5 65.5t59.5 160.5q0 109 -59 177t-143 68q-41 0 -87 -22v232h173v-40h-132v-135q19 5 46 5q103 0 173 -79t70 -206z" />
    <glyph glyph-name="six" unicode="6" horiz-adv-x="399" 
d="M386 185q0 -78 -55 -133.5t-133 -55.5t-133 55.5t-55 133.5q0 50 25 107q13 29 53 99l189 327h51l-205 -348q-72 -122 -72 -185q0 -61 43.5 -104t103.5 -43q62 0 104.5 43t42.5 104q0 62 -42.5 104.5t-104.5 42.5v41q79 0 133.5 -55t54.5 -133z" />
    <glyph glyph-name="seven" unicode="7" horiz-adv-x="284" 
d="M253 718l-69 -270h66v-40h-76l-107 -417l-40 12l103 405h-71v40h81l57 230h-173v40h229z" />
    <glyph glyph-name="eight" unicode="8" horiz-adv-x="537" 
d="M525 270q0 -114 -74.5 -195t-181.5 -81t-182 81t-75 195q0 75 34 138t92 100q-17 36 -17 69q0 61 43 104t105 43q61 0 104 -43t43 -104q0 -33 -17 -69q58 -37 92 -100t34 -138zM374 577q0 44 -30.5 75t-74.5 31t-75 -31t-31 -75q0 -28 12 -49q46 19 94 19q47 0 93 -19
q12 24 12 49zM336 494q-33 11 -67 11q-35 0 -68 -11q29 -23 68 -23t67 23zM484 270q0 136 -110 205q-42 -45 -105 -45t-106 45q-110 -69 -110 -205q0 -98 63.5 -166.5t152.5 -68.5q88 0 151.5 68.5t63.5 166.5z" />
    <glyph glyph-name="nine" unicode="9" horiz-adv-x="401" 
d="M390 535q0 -50 -25 -107q-13 -29 -53 -99l-190 -329h-49l204 350q72 124 72 185t-43 104t-105 43q-61 0 -104 -43t-43 -104q0 -62 43 -104.5t104 -42.5v-41q-78 0 -133 55t-55 133t55 133.5t133 55.5q79 0 134 -55.5t55 -133.5z" />
    <glyph glyph-name="colon" unicode=":" horiz-adv-x="171" 
d="M144 294q0 -24 -17 -41t-42 -17q-24 0 -41 17t-17 41q0 25 17 42t41 17q25 0 42 -17t17 -42zM144 54q0 -24 -17 -41t-42 -17q-24 0 -41 17t-17 41q0 25 17 42t41 17q25 0 42 -17t17 -42z" />
    <glyph glyph-name="semicolon" unicode=";" horiz-adv-x="171" 
d="M144 294q0 -24 -17.5 -41t-40.5 -17q-25 0 -42 17t-17 41q0 25 17 42t42 17q24 0 41 -17t17 -42zM144 54q0 -18 -15 -38l-58 -78h-48l45 61q-41 12 -41 55q0 25 17 42t42 17q24 0 41 -17t17 -42z" />
    <glyph glyph-name="less" unicode="&#x3c;" horiz-adv-x="385" 
d="M360 101l-342 189l342 192v-49l-257 -143l257 -142v-47z" />
    <glyph glyph-name="equal" unicode="=" horiz-adv-x="308" 
d="M281 316h-254v41h254v-41zM281 217h-254v42h254v-42z" />
    <glyph glyph-name="greater" unicode="&#x3e;" horiz-adv-x="385" 
d="M369 290l-341 -189v47l256 142l-256 143v49z" />
    <glyph glyph-name="question" unicode="?" horiz-adv-x="437" 
d="M414 540q0 -79 -90 -163q-77 -71 -77 -114v-118h-41v118q0 46 43 95l81 83q43 51 43 99q0 60 -45 102t-110 42q-64 0 -109 -42.5t-45 -101.5q0 -82 86 -130l-20 -35q-107 60 -107 165q0 76 57.5 130t137.5 54q81 0 138.5 -54t57.5 -130zM286 54q0 -23 -18 -40.5
t-42 -17.5q-25 0 -42.5 17.5t-17.5 40.5q0 24 17.5 41.5t42.5 17.5q24 0 42 -17.5t18 -41.5z" />
    <glyph glyph-name="at" unicode="@" horiz-adv-x="778" 
d="M753 359q0 -97 -49 -151q-43 -48 -105 -48q-46 0 -72.5 29.5t-26.5 81.5v205q-45 37 -107 37q-66 0 -114 -44.5t-48 -109.5q0 -66 48 -110t114 -44q20 0 43 5l22 -35q-30 -10 -65 -10q-82 0 -143.5 56t-61.5 138t61.5 137.5t143.5 55.5q59 0 108 -28v25h41v-278
q0 -71 57 -71q49 0 81 42t32 117q0 134 -94.5 228.5t-228.5 94.5t-228 -94.5t-94 -228.5q0 -133 94.5 -227.5t227.5 -94.5q69 0 135 30l23 -35q-72 -36 -158 -36q-150 0 -257 106.5t-107 256.5q0 151 107 258t257 107q151 0 257.5 -107t106.5 -258z" />
    <glyph glyph-name="A" unicode="A" horiz-adv-x="698" 
d="M695 7l-40 -15l-74 162h-464l-74 -162l-40 15l68 147h-61v40h79l260 563l260 -563h79v-40h-61zM562 194l-213 465l-213 -465h426z" />
    <glyph glyph-name="B" unicode="B" horiz-adv-x="267" 
d="M242 156q0 -62 -43 -109t-107 -47h-29v718h40q62 -33 98 -91q36 -61 36 -134q0 -120 -88 -195q42 -19 67.5 -57.5t25.5 -84.5zM195 493q0 56 -24.5 104t-66.5 73v-358q91 63 91 181zM201 156q0 41 -28.5 75.5t-68.5 39.5v-229q38 2 67.5 36.5t29.5 77.5z" />
    <glyph glyph-name="C" unicode="C" 
d="M685 101q-110 -121 -277 -121q-157 0 -267.5 111t-110.5 267q0 157 110.5 267.5t267.5 110.5q131 0 131 -99q0 -20 -4 -32h-44q4 12 4 28q0 62 -87 62q-139 0 -237 -99t-98 -238t98 -238t237 -99q146 0 246 108z" />
    <glyph glyph-name="D" unicode="D" horiz-adv-x="305" 
d="M275 359q0 -110 -47 -204q-50 -100 -140 -155h-34v718h34q90 -55 140 -155q47 -94 47 -204zM232 359q0 90 -33 167q-36 86 -104 134v-602q68 48 104 134q33 77 33 167z" />
    <glyph glyph-name="F" unicode="F" horiz-adv-x="201" 
d="M209 600h-43v54q0 23 -27 23h-35v-365h53v-39h-53v-273h-42v273h-51v39h51v406h77q70 0 70 -64v-54z" />
    <glyph glyph-name="G" unicode="G" horiz-adv-x="737" 
d="M691 0h-41v47q-100 -67 -241 -67q-156 0 -267.5 111t-111.5 267q0 157 111.5 267.5t267.5 110.5q131 0 131 -101q0 -20 -4 -32h-44q4 12 4 28q0 63 -87 63q-139 0 -236.5 -98.5t-97.5 -237.5q0 -138 97.5 -236t236.5 -98q146 0 241 77v168q0 4 -5 4h-111v40h111
q46 0 46 -44v-269z" />
    <glyph glyph-name="I" unicode="I" horiz-adv-x="154" 
d="M100 0h-42v677h-44v41h56q30 0 30 -29v-689z" />
    <glyph glyph-name="J" unicode="J" horiz-adv-x="179" 
d="M125 98q0 -148 -134 -168l-18 38q110 15 110 130v579h-59v41h71q30 0 30 -29v-591z" />
    <glyph glyph-name="K" unicode="K" horiz-adv-x="261" 
d="M28 719h41v-390l109 390h42l-111 -406h72v-211q0 -26 19 -45.5t44 -19.5v-40q-44 0 -74 29.5t-30 75.5v171h-71v-272h-41v718z" />
    <glyph glyph-name="L" unicode="L" horiz-adv-x="166" 
d="M162 0h-108v718h41v-678h67v-40z" />
    <glyph glyph-name="O" unicode="O" horiz-adv-x="816" 
d="M786 358q0 -156 -111.5 -267t-266.5 -111q-156 0 -267 111.5t-111 267.5q0 108 55 194q60 92 160 116q61 67 163 67q156 0 267 -110.5t111 -267.5zM743 358q0 139 -98 238t-237 99q-51 0 -92 -21q27 0 44 -5l-9 -40q-24 7 -53 7q-9 0 -27 -2q-21 -26 -33 -67l-38 13
l16 37q-66 -28 -107 -108q-36 -72 -36 -151q0 -138 98.5 -237.5t236.5 -99.5t236.5 99.5t98.5 237.5z" />
    <glyph glyph-name="P" unicode="P" horiz-adv-x="235" 
d="M229 493q0 -71 -36 -132.5t-97 -92.5v-268h-42v718h41q62 -33 98 -91q36 -61 36 -134zM187 493q0 118 -91 179v-360q91 63 91 181z" />
    <glyph glyph-name="Q" unicode="Q" horiz-adv-x="816" 
d="M786 358q0 -91 -42 -173q-41 -78 -112 -131q41 -20 99 -16v-41q-15 -1 -24 -1q-60 -3 -113 33q-87 -49 -186 -49q-156 0 -267 111.5t-111 267.5q0 108 55 194q60 92 160 116q61 67 163 67q156 0 267 -110.5t111 -267.5zM743 358q0 139 -98 238t-237 99q-51 0 -92 -21
q27 0 44 -5l-9 -40q-24 7 -53 7q-9 0 -27 -2q-21 -26 -33 -67l-38 13l16 37q-66 -28 -107 -108q-36 -72 -36 -151q0 -138 98.5 -237.5t236.5 -99.5q79 0 153 37q-50 53 -54 131h42q3 -68 47 -109q68 46 107.5 120t39.5 158z" />
    <glyph glyph-name="R" unicode="R" horiz-adv-x="279" 
d="M268 -4q-44 0 -74 29.5t-30 75.5v171h-69v-272h-41v718h40q62 -33 98 -91q36 -61 36 -134q0 -106 -73 -181h50v-211q0 -28 18.5 -46.5t44.5 -18.5v-40zM186 493q0 118 -91 178v-359q91 63 91 181z" />
    <glyph glyph-name="S" unicode="S" horiz-adv-x="182" 
d="M145 239q0 -151 -131 -258l-25 32q116 95 116 226q0 59 -38 153.5t-38 156.5q0 118 84 187l27 -30q-70 -58 -70 -157q0 -63 37.5 -148t37.5 -162z" />
    <glyph glyph-name="T" unicode="T" horiz-adv-x="174" 
d="M181 678h-73v-678h-42v678h-73v40h188v-40z" />
    <glyph glyph-name="U" unicode="U" horiz-adv-x="293" 
d="M239 103q0 -43 -26.5 -75t-66.5 -32q-39 0 -65.5 32t-26.5 75v615h41v-615q0 -29 16 -47.5t35 -18.5q20 0 35.5 18.5t15.5 47.5v615h42v-615z" />
    <glyph glyph-name="V" unicode="V" horiz-adv-x="710" 
d="M702 710l-347 -731l-346 734l38 16l308 -653l310 650z" />
    <glyph glyph-name="W" unicode="W" horiz-adv-x="791" 
d="M809 712l-352 -733l-61 141l-64 -141l-350 735l38 16l312 -651l42 92l-252 543l38 16l236 -509l241 506l38 -16l-256 -540l38 -92l314 649z" />
    <glyph glyph-name="X" unicode="X" horiz-adv-x="286" 
d="M254 3l-41 -9l-70 327l-70 -327l-40 9l89 413l-65 299l41 12l45 -213l45 213l40 -12l-64 -296z" />
    <glyph glyph-name="Z" unicode="Z" horiz-adv-x="232" 
d="M235 718l-167 -678h136v-40h-191l167 678h-69q-27 0 -27 -24v-54h-42v54q0 64 69 64h124z" />
    <glyph glyph-name="bracketleft" unicode="[" horiz-adv-x="202" 
d="M178 -65h-93q-30 0 -30 30v781q0 30 30 30h93v-42h-82v-757h82v-42z" />
    <glyph glyph-name="backslash" unicode="\" horiz-adv-x="372" 
d="M362 -36l-38 -16l-308 785l38 17z" />
    <glyph glyph-name="bracketright" unicode="]" horiz-adv-x="202" 
d="M148 -35q0 -30 -30 -30h-94v42h83v757h-83v42h94q30 0 30 -30v-781z" />
    <glyph glyph-name="asciicircum" unicode="^" horiz-adv-x="359" 
d="M322 302l-24 -33l-118 73l-117 -73l-24 33l141 89z" />
    <glyph glyph-name="underscore" unicode="_" horiz-adv-x="427" 
d="M483 -78h-539v45h539v-45z" />
    <glyph glyph-name="grave" unicode="`" horiz-adv-x="377" 
d="M265 380l-30 -23l-101 135l30 23z" />
    <glyph glyph-name="braceleft" unicode="{" horiz-adv-x="209" 
d="M197 -89l-103 73q-21 15 -21 29v244q0 45 -28 62l-44 22q25 11 59 34q13 15 13 51v244q0 13 21 28l103 73v-50l-83 -58v-234q0 -65 -32 -88q32 -22 32 -88v-234l83 -58v-50z" />
    <glyph glyph-name="bar" unicode="|" horiz-adv-x="140" 
d="M95 -63h-41v862h41v-862z" />
    <glyph glyph-name="braceright" unicode="}" horiz-adv-x="209" 
d="M208 341l-44 -22q-28 -16 -28 -62v-244q0 -13 -22 -29l-103 -73v50l84 58v234q0 66 31 88q-31 23 -31 88v234l-84 58v50l110 -76q15 -11 15 -25v-244q0 -47 28 -62z" />
    <glyph glyph-name="asciitilde" unicode="~" horiz-adv-x="360" 
d="M319 299q-48 -31 -78 -31q-22 0 -63 11t-59 11q-23 0 -57 -24l-22 36q48 31 78 31q21 0 61 -11.5t61 -11.5q19 0 56 24z" />
    <glyph glyph-name="exclamdown" unicode="&#xa1;" horiz-adv-x="188" 
d="M152 667q0 -23 -18 -40.5t-42 -17.5t-42 17.5t-18 40.5t18 40.5t42 17.5t42 -17.5t18 -40.5zM123 0h-63l13 568h35z" />
    <glyph glyph-name="cent" unicode="&#xa2;" horiz-adv-x="434" 
d="M410 429l-33 -22q-30 40 -73 59l-96 -293q30 -3 31 -3q78 0 135 66l30 -24q-68 -82 -165 -82q-20 0 -43 5l-36 -114l-40 11l37 114q-56 25 -88.5 72.5t-32.5 106.5q0 82 59 138t144 56q19 0 37 -3l17 52l39 -11l-16 -52q56 -25 94 -76zM263 477q-8 1 -25 1
q-74 0 -119 -47q-41 -43 -41 -105q0 -44 23 -81q24 -40 68 -59z" />
    <glyph glyph-name="sterling" unicode="&#xa3;" horiz-adv-x="270" 
d="M249 51q0 -51 -67 -51h-182v40q41 0 76 37q30 31 45 76q14 41 14 82q0 22 -2 33h-77v40h70q-4 14 -42 114q-26 68 -26 120q0 117 86 187l27 -30q-71 -58 -71 -157q0 -54 27 -120q35 -85 41 -114h77v-40h-71q2 -11 2 -33q0 -119 -77 -196h90q18 0 18 12v48h42v-48z" />
    <glyph glyph-name="currency" unicode="&#xa4;" horiz-adv-x="851" 
d="M555 689q-13 -10 -13 -26q0 -9 6 -26t6 -26q0 -17 -8 -26l-6 6q6 8 6 20q0 9 -6.5 26t-6.5 26q0 22 18 33zM520 689q-13 -10 -13 -26q0 -9 6 -26t6 -26q0 -17 -8 -26l-6 6q6 8 6 20q0 9 -6.5 26t-6.5 26q0 22 18 33zM486 687q-13 -10 -13 -26q0 -9 6 -25.5t6 -25.5
q0 -17 -10 -27l-6 6q7 8 7 22q0 8 -6 24.5t-6 25.5q0 23 18 33zM451 687q-14 -8 -14 -26q0 -8 6 -24.5t6 -25.5q0 -18 -9 -27l-6 6q6 7 6 21q0 9 -5.5 25.5t-5.5 24.5q0 23 17 34zM415 689q-13 -9 -13 -26q0 -9 6 -26t6 -26q0 -17 -9 -26l-6 6q6 6 6 20q0 9 -6 26t-6 26
q0 22 17 33zM582 508q-17 8 -43 8q-46 0 -76 -33l-2 1q35 43 76 39q-10 2 -16 2q-32 0 -62 -28l-1 2q32 38 64 38q48 0 60 -29zM785 0h-90q1 6 1 19q0 8 -3.5 23t-3.5 23t7 31t7 39q0 23 -11 51.5t-11 41.5q0 16 7 45.5t7 44.5q0 9 -4 26t-4 25q0 7 4 21q3 21 3 42
q0 12 -5 29q-7 23 -8 29q-2 11 -2 41q0 48 -10 80q-23 75 -77 126t-129 63h322v-800zM565 508q-21 -29 -73 -29q-7 0 -23 2q38 28 79 28q12 0 17 -1zM381 687q-14 -9 -14 -26q0 -9 6 -25.5t6 -25.5q0 -18 -9 -27l-6 6q6 7 6 22q0 8 -5.5 24.5t-5.5 25.5q0 22 17 33zM345 687
q-13 -7 -13 -26q0 -8 6 -24.5t6 -25.5q0 -17 -10 -27l-6 6q7 8 7 21q0 9 -6 25.5t-6 24.5q0 24 18 34zM680 136q0 -25 -9 -51q-5 -14 -5 -20q0 -8 4 -23.5t4 -23.5q0 -6 -2 -18h-9q2 12 2 18q0 8 -4 23.5t-4 23.5q0 9 6 24q8 20 8 47q0 16 -11 45.5t-11 45.5q0 15 7 45.5
t7 46.5q0 8 -4 23t-4 23q0 11 3.5 32.5t3.5 32.5q0 13 -8 36.5t-8 35.5q0 9 2.5 27t2.5 28q0 17 -6 32l8 4q6 -18 6 -36q0 -10 -2 -28t-2 -27q0 -12 8 -35.5t8 -36.5q0 -11 -3.5 -32.5t-3.5 -32.5q0 -8 4 -23.5t4 -23.5q0 -15 -7 -45.5t-7 -46.5q0 -13 11 -40.5t11 -49.5z
M650 135q0 -16 -7 -39.5t-7 -31.5q0 -9 4 -24.5t4 -23.5q0 -11 -1 -16h-9q2 10 2 16q0 8 -4.5 23.5t-4.5 24.5t7 31.5t7 39.5q0 16 -11.5 45.5t-11.5 44.5q0 16 7.5 46.5t7.5 45.5q0 8 -4 23.5t-4 23.5q0 10 3.5 32t3.5 33q0 13 -8.5 37t-8.5 37q0 8 1.5 24t1.5 24
t-3.5 22.5t-3.5 21.5q0 5 2.5 13.5t2.5 12.5q0 12 -3 22l8 4q3 -8 3 -26q0 -4 -2 -12.5t-2 -13.5q0 -7 3.5 -21.5t3.5 -22.5t-1.5 -24t-1.5 -24q0 -13 8.5 -37t8.5 -37q0 -11 -3.5 -33t-3.5 -32q0 -8 3.5 -23.5t3.5 -23.5q0 -15 -7 -45.5t-7 -46.5q0 -14 11.5 -41.5
t11.5 -48.5zM309 687q-13 -8 -13 -26q0 -8 6 -24.5t6 -25.5q0 -18 -9 -27l-7 6q7 7 7 21q0 9 -5.5 25.5t-5.5 24.5q0 23 17 34zM620 135q0 -16 -7 -39.5t-7 -31.5q0 -9 4.5 -24.5t4.5 -23.5q0 -6 -2 -16h-8q0 2 1 8v8q0 8 -4.5 23.5t-4.5 24.5q0 10 7 32t7 39q0 16 -11 45.5
t-11 44.5q0 16 7 46.5t7 45.5q0 8 -4 23.5t-4 23.5q0 10 3.5 32t3.5 33q0 20 -6 32q-3 -50 -21 -106q0 -6 3.5 -18.5t3.5 -19.5q0 -15 -7 -45.5t-7 -46.5q0 -14 11 -41.5t11 -48.5q0 -16 -7 -39.5t-7 -31.5q0 -9 4.5 -24.5t4.5 -23.5v-8q-1 -6 -1 -8h-9q1 5 1 16
q0 8 -4 23.5t-4 24.5q0 10 6.5 32t6.5 39q0 20 -6.5 35.5t-12.5 31.5l-13 -202h-13l21 301q-19 -47 -64 -84l-6 7q45 37 73 112q25 65 28 131q1 21 1 77q0 22 -3 44q-8 9 -8 26q0 9 6 25.5t6 25.5q0 17 -13 26l4 7q18 -10 18 -33q0 -9 -6 -25.5t-6 -25.5q0 -14 7 -22
q3 -13 3 -41v-30q-1 -20 -1 -30q0 -9 7.5 -28.5t7.5 -33.5q0 -11 -3.5 -33t-3.5 -32q0 -8 3.5 -23.5t3.5 -23.5q0 -15 -7 -45.5t-7 -46.5q0 -14 11.5 -41.5t11.5 -48.5zM415 363h-9v157h9v-157zM392 499l-1 -2q-30 28 -62 28q-5 0 -15 -2q42 4 75 -39l-1 -1q-31 33 -77 33
q-24 0 -43 -8q12 29 60 29q32 0 64 -38zM381 481q-14 -2 -22 -2q-52 0 -74 29q6 1 17 1q43 0 79 -28zM455 363h-29v3l26 9zM488 311l-2 -8h-13q-17 -29 -48 -29t-48 29h-13l-2 8q16 0 24.5 9.5t19.5 9.5q9 0 19 -7q9 7 19 7q12 0 21 -9.5t23 -9.5zM425 189q-84 0 -131 112
l20 -301h-12l-13 202q-6 -16 -12.5 -31.5t-6.5 -35.5q0 -13 6.5 -36t6.5 -35q0 -9 -4 -24.5t-4 -23.5q0 -11 1 -16h-9q-1 5 -1 16q0 8 4 23.5t4 24.5q0 11 -6.5 34.5t-6.5 36.5q0 18 11 47t11 43q0 16 -7 46.5t-7 45.5q0 -7 7 38q-20 61 -21 106q-6 -12 -6 -32
q0 -11 3 -32.5t3 -32.5q0 -8 -3.5 -23.5t-3.5 -23.5q0 -15 7 -45.5t7 -46.5q0 -15 -11 -44.5t-11 -45.5q0 -13 6.5 -36t6.5 -35q0 -9 -4 -24.5t-4 -23.5q0 -11 1 -16h-9q-1 5 -1 16q0 8 4.5 23.5t4.5 24.5q0 11 -7 34.5t-7 36.5q0 18 11 47t11 43q0 16 -7 46.5t-7 45.5
q0 8 4 23.5t4 23.5q0 11 -3.5 32.5t-3.5 32.5t7.5 31.5t7.5 30.5v34q-1 22 -1 33q0 23 2 34q8 8 8 22q0 9 -6 25.5t-6 25.5q0 22 17 33l5 -7q-13 -9 -13 -26q0 -9 6 -25.5t6 -25.5q0 -15 -9 -26q-2 -15 -2 -68q0 -37 1 -53q5 -78 45 -164q49 -106 113 -106h4v-8zM387 800
q-75 -12 -129 -63t-77 -126q-10 -32 -10 -92q0 -23 -1 -29t-8 -29q-5 -18 -5 -29q0 -26 3 -42t3 -21q0 -8 -3.5 -25t-3.5 -26q0 -15 7 -44.5t7 -45.5q0 -13 -11 -41.5t-11 -51.5q0 -16 7 -39t7 -31t-4 -23t-4 -23q0 -7 2 -19h-90v800h321zM239 595q0 -7 -3.5 -21.5
t-3.5 -22.5t1.5 -24t1.5 -24q0 -13 -8 -37t-8 -37q0 -11 3.5 -32.5t3.5 -32.5q0 -8 -4 -23.5t-4 -23.5q0 -15 7 -45.5t7 -46.5q0 -15 -11 -44.5t-11 -45.5q0 -17 6.5 -39t6.5 -32q0 -9 -4 -24.5t-4 -23.5q0 -11 1 -16h-9v8q-1 5 -1 8q0 8 4.5 23.5t4.5 24.5q0 8 -7 31.5
t-7 39.5q0 21 11.5 48.5t11.5 41.5q0 16 -7.5 46.5t-7.5 45.5q0 8 4 23.5t4 23.5q0 11 -3.5 32.5t-3.5 32.5q0 13 8.5 37t8.5 37q0 8 -1.5 24t-1.5 24t3.5 22.5t3.5 21.5q0 5 -2.5 13.5t-2.5 12.5q0 15 4 26l8 -4q-3 -7 -3 -22q0 -4 2 -12.5t2 -13.5zM206 589q-6 -15 -6 -32
q0 -10 2.5 -28t2.5 -27q0 -12 -8.5 -35.5t-8.5 -36.5q0 -11 3.5 -32.5t3.5 -32.5q0 -8 -3.5 -23t-3.5 -23q0 -16 7 -46.5t7 -45.5q0 -16 -11 -45.5t-11 -45.5q0 -27 8 -47q5 -13 5 -24q0 -8 -3.5 -23.5t-3.5 -23.5q0 -12 1 -18h-9v9q-1 6 -1 9q0 8 3.5 23.5t3.5 23.5
q0 9 -4 20q-9 26 -9 51q0 22 11 49.5t11 40.5q0 16 -7 46.5t-7 45.5q0 8 3.5 23.5t3.5 23.5q0 11 -3 32.5t-3 32.5q0 13 8 36.5t8 35.5q0 9 -2.5 27t-2.5 28q0 19 7 36zM767 51q0 32 -31 32t-31 -32q0 -31 31 -31t31 31zM459 303h-69q13 -14 35 -14q23 0 34 14zM762 51
q0 -26 -26 -26t-26 26q0 27 26 27t26 -27zM751 38l-4 3q-3 -5 -11 -5q-15 0 -15 15q0 16 15 16q6 0 11 -5l4 4q-8 6 -15 6q-20 0 -20 -21q0 -20 20 -20q8 0 15 7z" />
    <glyph glyph-name="yen" unicode="&#xa5;" horiz-adv-x="332" 
d="M350 718l-147 -319h89v-41h-103v-47h103v-40h-103v-268l-44 -4v272h-107v40h107v47h-107v41h93l-149 319h45l140 -299l138 299h45z" />
    <glyph glyph-name="section" unicode="&#xa7;" horiz-adv-x="201" 
d="M184 274q0 -97 -58 -184q-26 -82 -103 -154l-27 31q105 98 105 221q0 63 -47.5 159t-47.5 163q0 95 52 157q17 64 67 108l28 -30q-62 -58 -62 -149q0 -59 45 -152q48 -100 48 -170zM136 211q9 37 9 70q0 53 -41 143q-17 35 -33 72.5t-15 76.5q-8 -32 -8 -54
q0 -50 28 -124l40 -91q20 -49 20 -93z" />
    <glyph glyph-name="dieresis" unicode="&#xa8;" horiz-adv-x="382" 
d="M317 440q0 -19 -14 -33.5t-34 -14.5q-19 0 -33 14t-14 34t14 33.5t33 13.5q20 0 34 -14t14 -33zM158 440q0 -19 -14 -33.5t-34 -14.5q-19 0 -33 14t-14 34t14 33.5t33 13.5q20 0 34 -14t14 -33z" />
    <glyph glyph-name="copyright" unicode="&#xa9;" horiz-adv-x="449" 
d="M418 530q0 -81 -56.5 -138t-137.5 -57q-80 0 -136.5 57t-56.5 138q0 80 56.5 137t136.5 57q81 0 137.5 -57t56.5 -137zM386 530q0 67 -47.5 114.5t-114.5 47.5t-114 -47.5t-47 -114.5t47 -114.5t114 -47.5q68 0 115 47.5t47 114.5zM335 459q-44 -60 -110 -60
q-53 0 -91.5 38t-38.5 92t38.5 92t91.5 38q62 0 107 -54l-26 -21q-33 43 -81 43q-40 0 -68.5 -28.5t-28.5 -69.5t28.5 -69.5t68.5 -28.5q51 0 84 47z" />
    <glyph glyph-name="ordfeminine" unicode="&#xaa;" horiz-adv-x="382" 
d="M302 378h-42v10q-31 -13 -52 -13q-54 0 -93 34q-42 37 -42 91q0 53 42 90q40 34 93 34q26 0 52 -12v9h42v-243zM329 268h-261v42h261v-42zM260 430v139q-24 13 -52 13q-37 0 -65.5 -24t-28.5 -58q0 -36 27.5 -60t66.5 -24q29 0 52 14z" />
    <glyph glyph-name="guillemotleft" unicode="&#xab;" horiz-adv-x="457" 
d="M448 0l-331 186l331 185v-43l-255 -142l255 -144v-42zM331 0l-331 186l331 185v-43l-255 -142l255 -144v-42z" />
    <glyph glyph-name="registered" unicode="&#xae;" horiz-adv-x="449" 
d="M418 530q0 -81 -56.5 -138t-137.5 -57q-80 0 -136.5 57t-56.5 138q0 80 56.5 137t136.5 57q81 0 137.5 -57t56.5 -137zM305 560q0 29 -20 49t-49 20t-49 -20t-20 -49t20 -49t49 -20t49 20t20 49zM386 530q0 67 -47.5 114.5t-114.5 47.5t-114 -47.5t-47 -114.5
q0 -88 72 -135v251h32v-12q30 27 69 27q42 0 72 -30t30 -71q0 -40 -28 -69.5t-68 -32.5l69 -65q75 47 75 137zM279 378l-112 110v-110q32 -10 57 -10q8 0 55 10z" />
    <glyph glyph-name="degree" unicode="&#xb0;" horiz-adv-x="257" 
d="M224 627q0 -40 -28 -68.5t-68 -28.5t-68.5 28.5t-28.5 68.5q0 41 28.5 69t68.5 28t68 -28.5t28 -68.5zM183 627q0 23 -16.5 39.5t-38.5 16.5q-23 0 -39.5 -16.5t-16.5 -39.5t16.5 -39.5t39.5 -16.5t39 16.5t16 39.5z" />
    <glyph glyph-name="acute" unicode="&#xb4;" horiz-adv-x="377" 
d="M255 492l-101 -135l-30 23l101 135z" />
    <glyph glyph-name="paragraph" unicode="&#xb6;" horiz-adv-x="303" 
d="M260 0h-41v703q-10 -2 -28 -8v-695h-41v283q-62 35 -98 91q-39 60 -39 129q0 102 72 172q70 67 175 76v-751zM150 332v343q-43 -26 -69 -73.5t-26 -98.5t26 -97t69 -74z" />
    <glyph glyph-name="cedilla" unicode="&#xb8;" horiz-adv-x="359" 
d="M298 -127q0 -42 -30.5 -70t-75.5 -28q-62 0 -98 63l35 21q24 -43 63 -43q28 0 46.5 16t18.5 41t-18.5 41t-46.5 16h-20v91h41v-51q37 -7 61 -33.5t24 -63.5z" />
    <glyph glyph-name="ordmasculine" unicode="&#xba;" horiz-adv-x="382" 
d="M316 499q0 -51 -36.5 -87.5t-87.5 -36.5t-87.5 36.5t-36.5 87.5t36.5 87.5t87.5 36.5t87.5 -36.5t36.5 -87.5zM329 268h-275v42h275v-42zM274 499q0 34 -24 57.5t-58 23.5t-58 -23.5t-24 -57.5t24 -58t58 -24t58 24t24 58z" />
    <glyph glyph-name="guillemotright" unicode="&#xbb;" horiz-adv-x="457" 
d="M457 185l-331 -186v42l256 144l-256 142v43zM340 185l-331 -186v42l256 144l-256 142v43z" />
    <glyph glyph-name="questiondown" unicode="&#xbf;" horiz-adv-x="437" 
d="M271 666q0 -24 -17.5 -41.5t-42.5 -17.5q-24 0 -42 17.5t-18 41.5q0 23 18 40.5t42 17.5q25 0 42.5 -17.5t17.5 -40.5zM414 180q0 -76 -57.5 -130t-137.5 -54q-81 0 -138.5 54t-57.5 130q0 79 90 163q77 71 77 114v118h41v-118q0 -46 -43 -95l-81 -83q-43 -51 -43 -99
q0 -60 45 -102t110 -42q64 0 109 42.5t45 101.5q0 82 -86 130l20 35q107 -60 107 -165z" />
    <glyph glyph-name="macron" unicode="&#xaf;" horiz-adv-x="359" 
d="M279 452h-199v41h199v-41z" />
    <glyph glyph-name="mu" unicode="&#xb5;" horiz-adv-x="232" 
d="M198 8l-26 -32q-139 114 -142 380q-3 261 142 380l26 -32q-127 -114 -127 -348t127 -348z" />
    <glyph glyph-name="endash" unicode="&#x2013;" horiz-adv-x="335" 
d="M305 268h-275v42h275v-42z" />
    <glyph glyph-name="emdash" unicode="&#x2014;" horiz-adv-x="450" 
d="M420 268h-390v42h390v-42z" />
    <glyph glyph-name="quoteleft" unicode="&#x2018;" horiz-adv-x="157" 
d="M141 731l-46 -61q42 -13 42 -56q0 -24 -17 -41t-42 -17q-24 0 -41 17t-17 41q0 19 15 39l59 78h47z" />
    <glyph glyph-name="quoteright" unicode="&#x2019;" horiz-adv-x="157" 
d="M137 671q0 -18 -15 -38l-58 -78h-48l45 61q-41 12 -41 55q0 25 17 42t42 17q24 0 41 -17t17 -42z" />
    <glyph glyph-name="quotesinglbase" unicode="&#x201a;" horiz-adv-x="157" 
d="M137 54q0 -18 -15 -38l-58 -78h-48l45 61q-41 12 -41 55q0 25 17 42t42 17q24 0 41 -17t17 -42z" />
    <glyph glyph-name="quotedblleft" unicode="&#x201c;" horiz-adv-x="296" 
d="M281 731l-45 -61q40 -14 40 -56q0 -24 -17 -41t-41 -17t-41 17t-17 41q0 19 15 39l58 78h48zM141 731l-46 -61q42 -13 42 -56q0 -24 -17 -41t-42 -17q-24 0 -41 17t-17 41q0 19 15 39l59 78h47z" />
    <glyph glyph-name="quotedblright" unicode="&#x201d;" horiz-adv-x="297" 
d="M277 671q0 -18 -15 -38l-59 -78h-47l45 61q-41 12 -41 55q0 25 17 42t42 17q24 0 41 -17t17 -42zM137 671q0 -18 -15 -38l-58 -78h-48l45 61q-41 12 -41 55q0 25 17 42t42 17q24 0 41 -17t17 -42z" />
    <glyph glyph-name="quotedblbase" unicode="&#x201e;" horiz-adv-x="295" 
d="M275 54q0 -18 -15 -38l-59 -78h-47l45 61q-41 12 -41 55q0 25 17 42t42 17q24 0 41 -17t17 -42zM137 54q0 -18 -15 -38l-58 -78h-48l45 61q-41 12 -41 55q0 25 17 42t42 17q24 0 41 -17t17 -42z" />
    <glyph glyph-name="dagger" unicode="&#x2020;" horiz-adv-x="388" 
d="M356 573q0 -25 -17.5 -42t-41.5 -17q-23 0 -39.5 14t-18.5 36h-36v-54h58v-9q0 -288 -66 -520q-69 232 -69 520v9h59v54h-36q-3 -22 -19.5 -36t-38.5 -14q-25 0 -42.5 17t-17.5 42q0 24 17.5 41.5t42.5 17.5q22 0 38 -14t20 -36h36v35q-22 4 -36 20.5t-14 38.5
q0 25 17 42.5t42 17.5q24 0 41.5 -17.5t17.5 -42.5q0 -22 -14.5 -38.5t-35.5 -20.5v-35h36q3 22 19.5 36t38.5 14q24 0 41.5 -17.5t17.5 -41.5zM235 676q0 17 -12 29.5t-29 12.5t-29.5 -12.5t-12.5 -29.5q0 -33 33 -40v40h18v-40q32 7 32 40zM338 573q0 17 -12 29t-29 12
q-33 0 -40 -32h40v-18h-40q5 -32 40 -32q17 0 29 12t12 29zM131 564h-40v18h40q-9 32 -40 32q-17 0 -29.5 -12t-12.5 -29t12.5 -29t29.5 -12q33 0 40 32zM243 492h-40v-238h-18v238h-41q2 -244 51 -442q46 198 48 442zM203 212h-18v18h18v-18z" />
    <glyph glyph-name="daggerdbl" unicode="&#x2021;" horiz-adv-x="408" 
d="M366 100q0 -24 -17.5 -41.5t-41.5 -17.5q-22 0 -38.5 14t-19.5 36h-36v-35q21 -3 35.5 -20t14.5 -39q0 -24 -17.5 -41.5t-41.5 -17.5q-25 0 -42 17.5t-17 41.5q0 23 14 39.5t36 19.5v35h-36q-4 -22 -20.5 -36t-37.5 -14q-25 0 -42.5 17.5t-17.5 41.5q0 25 17.5 42
t42.5 17q22 0 38.5 -14t19.5 -36h36v54h-59v9q0 18 6 106q1 17 3 59l-3 57q-6 88 -6 107v9h59v54h-36q-3 -22 -19.5 -36t-38.5 -14q-25 0 -42.5 17t-17.5 42q0 24 17.5 41.5t42.5 17.5q21 0 37.5 -14t20.5 -36h36v35q-22 4 -36 20.5t-14 38.5q0 25 17 42.5t42 17.5
q24 0 41.5 -17.5t17.5 -42.5q0 -22 -14.5 -38.5t-35.5 -20.5v-35h36q3 22 19.5 36t38.5 14q24 0 41.5 -17.5t17.5 -41.5q0 -25 -17.5 -42t-41.5 -17q-23 0 -39.5 14t-18.5 36h-36v-54h58v-9q0 -6 -5 -106q-1 -17 -4 -58q2 -20 4 -58q5 -100 5 -107v-9h-58v-54h36
q2 22 18.5 36t39.5 14q24 0 41.5 -17t17.5 -42zM245 676q0 17 -12 29.5t-29 12.5t-29.5 -12.5t-12.5 -29.5q0 -33 33 -40v40h18v-40q32 7 32 40zM348 573q0 17 -12 29t-29 12q-33 0 -40 -32h40v-18h-40q7 -32 40 -32q17 0 29 12t12 29zM141 564h-40v18h40q-8 32 -40 32
q-17 0 -29.5 -12t-12.5 -29t12.5 -29t29.5 -12q32 0 40 32zM253 181q0 18 -6 102l-4 54l5 60q5 70 5 95h-40v-117h-18v117h-41q0 -24 7 -102q1 -15 3 -53q-1 -21 -4 -61q-6 -68 -6 -95h41v118h18v-118h40zM348 100q0 17 -12 29t-29 12q-33 0 -40 -32h40v-18h-40
q7 -32 40 -32q17 0 29 12.5t12 28.5zM141 91h-40v18h40q-8 32 -40 32q-17 0 -29.5 -12t-12.5 -29t12.5 -29t29.5 -12q32 0 40 32zM245 -3q0 35 -32 40v-40h-18v40q-33 -5 -33 -40q0 -17 12.5 -29t29.5 -12t29 12t12 29zM213 329h-18v18h18v-18z" />
    <glyph glyph-name="bullet" unicode="&#x2022;" horiz-adv-x="262" 
d="M194 385l-63 -63l-63 63l63 63z" />
    <glyph glyph-name="ellipsis" unicode="&#x2026;" horiz-adv-x="457" 
d="M441 49q0 -24 -17 -41t-42 -17q-24 0 -41 17t-17 41q0 25 17 42t41 17q25 0 42 -17t17 -42zM288 49q0 -24 -17 -41t-42 -17q-24 0 -41 17t-17 41q0 25 17 42t41 17q25 0 42 -17t17 -42zM135 49q0 -24 -17 -41t-42 -17q-24 0 -41 17t-17 41q0 25 17 42t41 17q25 0 42 -17
t17 -42z" />
    <glyph glyph-name="perthousand" unicode="&#x2030;" horiz-adv-x="435" 
d="M260 718l-161 -718h-43l149 656q-22 -10 -43 -10q-19 0 -47.5 11.5t-39.5 11.5q-13 0 -22 -10t-9 -23t10 -22t24 -9q31 0 35 38l41 -6q-5 -34 -26.5 -53t-50.5 -19t-51.5 21t-22.5 50q0 28 21 50t51 22q20 0 47 -10.5t37 -10.5q25 0 65 31h36zM438 68q0 -29 -22 -50.5
t-53 -21.5q-57 0 -72 52q-17 -52 -73 -52q-31 0 -53 21.5t-22 50.5q0 31 22 52.5t53 21.5q55 0 73 -52q7 22 27 37t45 15q31 0 53 -21.5t22 -52.5zM397 68q0 14 -10 24t-24 10t-24 -10t-10 -24q0 -32 34 -32t34 32zM252 68q0 14 -10 24t-24 10t-24 -10t-10 -24q0 -32 34 -32
t34 32z" />
    <glyph glyph-name="guilsinglleft" unicode="&#x2039;" horiz-adv-x="385" 
d="M358 0l-331 186l331 185v-43l-255 -142l255 -144v-42z" />
    <glyph glyph-name="guilsinglright" unicode="&#x203a;" horiz-adv-x="385" 
d="M358 186l-331 -186v42l256 144l-256 142v43z" />
    <glyph glyph-name="trademark" unicode="&#x2122;" horiz-adv-x="459" 
d="M394 490h-32v120q0 10 -9 18t-20 8q-23 0 -23 -17v-129h-33v129q0 17 -22 17q-30 0 -30 -26v-120h-32v120q0 25 18.5 41.5t43.5 16.5q20 0 39 -14q16 14 39 14q24 0 42.5 -16.5t18.5 -41.5v-120zM187 630h-43v-140h-33v140h-44v32h120v-32z" />
    <glyph glyph-name="periodcentered" unicode="&#xb7;" horiz-adv-x="196" 
d="M156 362q0 -25 -17 -42t-41 -17t-41.5 17t-17.5 42q0 24 17.5 41t41.5 17t41 -17t17 -41z" />
    <glyph glyph-name="nonbreakingspace" unicode="&#xa0;" horiz-adv-x="108" 
 />
    <glyph glyph-name="afii10017" unicode="&#x410;" horiz-adv-x="698" 
d="M695 7l-40 -15l-74 162h-464l-74 -162l-40 15l68 147h-61v40h79l260 563l260 -563h79v-40h-61zM562 194l-213 465l-213 -465h426z" />
    <glyph glyph-name="afii10019" unicode="&#x412;" horiz-adv-x="237" 
d="M205 156q0 -62 -43 -109t-107 -47h-29v718h40q62 -33 98 -91q36 -61 36 -134q0 -120 -88 -195q42 -19 67.5 -57.5t25.5 -84.5zM158 493q0 56 -24.5 104t-66.5 73v-358q91 63 91 181zM164 156q0 41 -28.5 75.5t-68.5 39.5v-229q38 2 67.5 36.5t29.5 77.5z" />
    <glyph glyph-name="afii10020" unicode="&#x413;" horiz-adv-x="200" 
d="M173 600h-43v54q0 23 -27 23h-35v-677h-42v718h77q70 0 70 -64v-54z" />
    <glyph glyph-name="afii10022" unicode="&#x415;" horiz-adv-x="217" 
d="M87 678l1 -366h81v-39h-81v-234l89 1v-40h-131v718h131v-40l-89 1z" />
    <glyph glyph-name="afii10025" unicode="&#x417;" horiz-adv-x="451" 
d="M430 253q0 -53 -20 -99.5t-53 -81t-76.5 -54.5t-90.5 -20q-35 0 -74 14t-69 43q-22 24 -29.5 50.5t-4 51t16.5 44.5t33 31.5t45 11.5t52 -15l-13 -35q-19 13 -36.5 12.5t-31 -10t-21 -25t-7.5 -31.5q0 -25 14.5 -44t36 -31.5t45.5 -18.5t43 -6q39 0 75 16.5t63.5 45.5
t44 68t16.5 83q-1 42 -18.5 78t-46 62.5t-67 42.5t-81.5 18l8 38q19 -4 32 -4q32 0 53 15t30.5 37t8 48t-14 47t-35 34t-54.5 10q-14 -2 -26.5 -9t-21 -19t-11 -27.5t3.5 -33.5h-43q-7 25 -2.5 47.5t17.5 39t32.5 26.5t43.5 12q34 3 62.5 -6t49 -26.5t32 -43t11.5 -56.5
q0 -83 -69 -116q74 -38 110.5 -88.5t36.5 -125.5z" />
    <glyph glyph-name="afii10049" unicode="&#x42f;" horiz-adv-x="259" 
d="M15 36q26 0 44.5 18.5t18.5 46.5v211h50q-73 75 -73 181q0 73 36 134q36 58 98 91h40v-718h-41v272h-69v-171q0 -46 -30 -75.5t-74 -29.5v40zM97 493q0 -118 91 -181v359q-91 -60 -91 -178z" />
    <glyph glyph-name="afii10031" unicode="&#x41d;" horiz-adv-x="281" 
d="M267 273h-47v-273h-42v273h-80v-273h-42v273h-48v39h48v406h42v-406h80v406h42v-406h47v-39z" />
    <glyph glyph-name="afii10026" unicode="&#x418;" horiz-adv-x="224" 
d="M151 547l-80 -144v-403h-42v718h42v-231l122 231v-718h-42v547z" />
    <glyph glyph-name="afii10024" unicode="&#x416;" horiz-adv-x="444" 
d="M201 273h-71v-171q0 -46 -30 -75.5t-74 -29.5v40q25 0 44 19.5t19 45.5v211h72l-111 406h42l109 -390v390h41v-390l109 390h42l-111 -406h72v-211q0 -26 19 -45.5t44 -19.5v-40q-44 0 -74 29.5t-30 75.5v171h-71v-272h-41v272z" />
    <glyph glyph-name="afii10018" unicode="&#x411;" horiz-adv-x="388" 
d="M75 677v-120q55 -3 106.5 -26t92 -59.5t65 -85.5t24.5 -104q0 -56 -24.5 -105.5t-65 -87.5t-92.5 -61.5t-106 -27.5h-42v718h180v-41h-138zM320 283q0 49 -20.5 90.5t-54 73t-78 51t-92.5 22.5v-479q48 4 92.5 24t78 52t54 74.5t20.5 91.5z" />
    <glyph glyph-name="afii10021" unicode="&#x414;" horiz-adv-x="839" 
d="M75 0q-27 0 -27 -23v-53h-43v54q0 64 70 64h13l52 112l278 603l335 -718h2q70 0 70 -64v-54h-43v54q0 25 -27 25h-680zM186 154l-52 -112l572 -3l-288 620z" />
    <glyph glyph-name="E" unicode="E" horiz-adv-x="198" 
d="M71 678l1 -366h57v-39h-57v-234l89 1v-40h-131v718h131v-40l-89 1z" />
    <glyph glyph-name="afii10027" unicode="&#x419;" horiz-adv-x="224" 
d="M151 547l-80 -144v-403h-42v718h42v-231l122 231v-718h-42v547zM165 815v-41h-99l1 41h98z" />
    <glyph glyph-name="afii10028" unicode="&#x41a;" horiz-adv-x="285" 
d="M35 719h41v-390l109 390h42l-111 -406h72v-211q0 -26 19 -45.5t44 -19.5v-40q-44 0 -74 29.5t-30 75.5v171h-71v-272h-41v718z" />
    <glyph glyph-name="afii10029" unicode="&#x41b;" horiz-adv-x="261" 
d="M222 0h-42v620q0 31 -14.5 49t-36.5 18t-36.5 -18t-14.5 -49v-620h-41v620q0 43 25.5 75t66.5 32t67 -32t26 -75v-620z" />
    <glyph glyph-name="afii10030" unicode="&#x41c;" horiz-adv-x="766" 
d="M381 315l-127 321l-211 -643l-39 11l245 747l131 -324l132 323l245 -747l-39 -11l-211 643z" />
    <glyph glyph-name="afii10032" unicode="&#x41e;" horiz-adv-x="816" 
d="M786 358q0 -156 -111.5 -267t-266.5 -111q-156 0 -267 111.5t-111 267.5q0 108 55 194q60 92 160 116q61 67 163 67q156 0 267 -110.5t111 -267.5zM743 358q0 139 -98 238t-237 99q-51 0 -92 -21q27 0 44 -5l-9 -40q-24 7 -53 7q-9 0 -27 -2q-21 -26 -33 -67l-38 13
l16 37q-66 -28 -107 -108q-36 -72 -36 -151q0 -138 98.5 -237.5t236.5 -99.5t236.5 99.5t98.5 237.5z" />
    <glyph glyph-name="afii10033" unicode="&#x41f;" horiz-adv-x="281" 
d="M269 678h-47l1 -678h-42l-1 678h-80l1 -678h-42l-1 678h-48v39h259v-39z" />
    <glyph glyph-name="afii10034" unicode="&#x420;" horiz-adv-x="235" 
d="M229 493q0 -71 -36 -132.5t-97 -92.5v-268h-42v718h41q62 -33 98 -91q36 -61 36 -134zM187 493q0 118 -91 179v-360q91 63 91 181z" />
    <glyph glyph-name="afii10035" unicode="&#x421;" 
d="M685 101q-110 -121 -277 -121q-157 0 -267.5 111t-110.5 267q0 157 110.5 267.5t267.5 110.5q131 0 131 -99q0 -20 -4 -32h-44q4 12 4 28q0 62 -87 62q-139 0 -237 -99t-98 -238t98 -238t237 -99q146 0 246 108z" />
    <glyph glyph-name="afii10036" unicode="&#x422;" horiz-adv-x="239" 
d="M215 678h-73v-678h-42v678h-73v40h188v-40z" />
    <glyph glyph-name="afii10038" unicode="&#x424;" horiz-adv-x="802" 
d="M420 70q62 -3 118.5 19.5t100 62.5t69.5 94t26 115t-26 115t-69 93.5t-100 62t-118 19.5zM379 1v32q-69 -3 -133.5 22t-115 70.5t-80.5 106.5t-30 129q0 69 30 130t79.5 106t114.5 70t134 22v30h43v-30q69 3 134 -22t114.5 -70t79.5 -106t30 -130q0 -68 -30 -129
t-80.5 -106.5t-115 -70.5t-133.5 -22v-32h-42h1zM378 651q-62 3 -118.5 -19.5t-100.5 -62t-70 -93.5t-26 -115t28.5 -116t73.5 -96t101.5 -63.5t112.5 -17.5z" />
    <glyph glyph-name="afii10039" unicode="&#x425;" horiz-adv-x="286" 
d="M254 3l-41 -9l-70 327l-70 -327l-40 9l89 413l-65 299l41 12l45 -213l45 213l40 -12l-64 -296z" />
    <glyph glyph-name="afii10040" unicode="&#x426;" horiz-adv-x="280" 
d="M192 1l1 -1h-42l-1 1h-80l1 -1h-42l-1 1l1 717h42l-1 -678h80l1 678h42l-1 -678q70 0 70 -64v-54h-43v54q0 23 -27 23v2z" />
    <glyph glyph-name="afii10041" unicode="&#x427;" horiz-adv-x="241" 
d="M210 0h-42v302q-11 -12 -24 -20t-26 -8q-18 0 -34.5 6t-29 19t-20.5 32t-8 45l-1 341h41l1 -341q0 -32 16 -48.5t35 -16.5q17 0 31.5 16t18.5 41v350h42v-718z" />
    <glyph glyph-name="afii10043" unicode="&#x429;" horiz-adv-x="412" 
d="M154 719h42l-1 -678h80l1 678h42l-1 -678q70 0 70 -64v-54h-43v54q0 23 -27 23v2l1 -1l-288 -1l-1 1l1 720h42l2 -681h77l1 678z" />
    <glyph glyph-name="afii10042" unicode="&#x428;" horiz-adv-x="561" 
d="M287 719q21 -57 24.5 -112.5t-2 -110t-15.5 -109.5t-15.5 -111.5t-2.5 -115t24 -120.5h179v678h43v-719l-1 1h-492v721h43v-681h185q-22 68 -24.5 130.5t4 121t17.5 113t16.5 107t1.5 103.5t-28 103z" />
    <glyph glyph-name="afii10048" unicode="&#x42e;" horiz-adv-x="937" 
d="M904 361q0 -156 -111.5 -267t-266.5 -111q-156 0 -267 111q-78 79 -101 179h-57v-273h-42v273h-48v39h48v406h42v-406h50q-3 24 -3 50q0 108 55 194q60 92 160 116q61 67 163 67q156 0 267 -110.5t111 -267.5zM861 361q0 139 -98 238t-237 99q-51 0 -92 -21q27 0 44 -5
l-9 -40q-24 7 -53 7q-9 0 -27 -2q-21 -26 -33 -67l-38 13l16 37q-66 -28 -107 -108q-36 -72 -36 -151q0 -25 3 -49h76v-39h-68q22 -83 87 -150q99 -99 237 -99t236.5 99.5t98.5 237.5z" />
    <glyph glyph-name="afii10046" unicode="&#x42c;" horiz-adv-x="263" 
d="M35 0v718h42v-185q70 -37 113 -110q42 -74 42 -157q0 -86 -42 -158q-42 -69 -114 -108h-41zM189 266q0 71 -29 127t-83 94v-440q54 37 83 93t29 126z" />
    <glyph glyph-name="afii10045" unicode="&#x42b;" horiz-adv-x="351" 
d="M30 0v718h42v-185q70 -37 113 -110q42 -74 42 -157q0 -86 -42 -158q-42 -69 -114 -108h-41zM184 266q0 71 -29 127t-83 94v-440q54 37 83 93t29 126zM319 -1h-42v718h42v-718z" />
    <glyph glyph-name="afii10044" unicode="&#x42a;" horiz-adv-x="361" 
d="M133 679h-32q-27 0 -27 -23v-54h-43v54q0 64 70 62h73v-185q70 -37 113 -110q42 -74 42 -157q0 -86 -42 -158q-42 -69 -114 -108h-41zM286 266q0 71 -29 127t-83 94v-440q54 37 83 93t29 126z" />
    <glyph glyph-name="afii10047" unicode="&#x42d;" horiz-adv-x="566" 
d="M281 717q48 -6 85.5 -25.5t69.5 -48.5q58 -54 85 -133t23 -167q-3 -72 -30 -137t-73 -113.5t-108.5 -77t-137.5 -28.5q-35 0 -74 14t-69 43q-22 24 -29.5 50.5t-4 51t16.5 44.5t33 31.5t45 11.5t52 -15l-13 -35q-19 13 -36.5 12.5t-31 -10t-21 -25t-7.5 -31.5
q0 -25 14.5 -44.5t36 -33t45.5 -20.5t43 -7q75 1 136 35t102 90q30 42 47.5 93.5t17.5 106.5h-257v39h256q2 40 -10 82t-33.5 80t-52 68t-67 45.5t-76.5 13t-81 -29.5q-25 -17 -41 -42.5t-21 -63.5l-44 -1q4 44 21.5 77.5t45.5 56t64.5 33.5t78.5 10z" />
    <glyph glyph-name="c" unicode="c" 
d="M685 101q-110 -121 -277 -121q-157 0 -267.5 111t-110.5 267q0 157 110.5 267.5t267.5 110.5q131 0 131 -99q0 -20 -4 -32h-44q4 12 4 28q0 62 -87 62q-139 0 -237 -99t-98 -238t98 -238t237 -99q146 0 246 108z" />
    <glyph glyph-name="d" unicode="d" horiz-adv-x="305" 
d="M275 359q0 -110 -47 -204q-50 -100 -140 -155h-34v718h34q90 -55 140 -155q47 -94 47 -204zM232 359q0 90 -33 167q-36 86 -104 134v-602q68 48 104 134q33 77 33 167z" />
    <glyph glyph-name="e" unicode="e" horiz-adv-x="202" 
d="M95 678l1 -366h57v-39h-57v-234l89 1v-40h-131v718h131v-40l-89 1z" />
    <glyph glyph-name="f" unicode="f" horiz-adv-x="201" 
d="M209 600h-43v54q0 23 -27 23h-35v-365h53v-39h-53v-273h-42v273h-51v39h51v406h77q70 0 70 -64v-54z" />
    <glyph glyph-name="g" unicode="g" horiz-adv-x="737" 
d="M691 0h-41v47q-100 -67 -241 -67q-156 0 -267.5 111t-111.5 267q0 157 111.5 267.5t267.5 110.5q131 0 131 -101q0 -20 -4 -32h-44q4 12 4 28q0 63 -87 63q-139 0 -236.5 -98.5t-97.5 -237.5q0 -138 97.5 -236t236.5 -98q146 0 241 77v168q0 4 -5 4h-111v40h111
q46 0 46 -44v-269z" />
    <glyph glyph-name="h" unicode="h" horiz-adv-x="281" 
d="M270 273h-47v-273h-42v273h-80v-273h-42v273h-48v39h48v406h42v-406h80v406h42v-406h47v-39z" />
    <glyph glyph-name="i" unicode="i" horiz-adv-x="154" 
d="M100 0h-42v677h-44v41h56q30 0 30 -29v-689z" />
    <glyph glyph-name="j" unicode="j" horiz-adv-x="179" 
d="M125 98q0 -148 -134 -168l-18 38q110 15 110 130v579h-59v41h71q30 0 30 -29v-591z" />
    <glyph glyph-name="k" unicode="k" horiz-adv-x="261" 
d="M28 719h41v-390l109 390h42l-111 -406h72v-211q0 -26 19 -45.5t44 -19.5v-40q-44 0 -74 29.5t-30 75.5v171h-71v-272h-41v718z" />
    <glyph glyph-name="l" unicode="l" horiz-adv-x="166" 
d="M162 0h-108v718h41v-678h67v-40z" />
    <glyph glyph-name="p" unicode="p" horiz-adv-x="235" 
d="M229 493q0 -71 -36 -132.5t-97 -92.5v-268h-42v718h41q62 -33 98 -91q36 -61 36 -134zM187 493q0 118 -91 179v-360q91 63 91 181z" />
    <glyph glyph-name="q" unicode="q" horiz-adv-x="816" 
d="M786 358q0 -91 -42 -173q-41 -78 -112 -131q41 -20 99 -16v-41q-15 -1 -24 -1q-60 -3 -113 33q-87 -49 -186 -49q-156 0 -267 111.5t-111 267.5q0 108 55 194q60 92 160 116q61 67 163 67q156 0 267 -110.5t111 -267.5zM743 358q0 139 -98 238t-237 99q-51 0 -92 -21
q27 0 44 -5l-9 -40q-24 7 -53 7q-9 0 -27 -2q-21 -26 -33 -67l-38 13l16 37q-66 -28 -107 -108q-36 -72 -36 -151q0 -138 98.5 -237.5t236.5 -99.5q79 0 153 37q-50 53 -54 131h42q3 -68 47 -109q68 46 107.5 120t39.5 158z" />
    <glyph glyph-name="r" unicode="r" horiz-adv-x="279" 
d="M268 -4q-44 0 -74 29.5t-30 75.5v171h-69v-272h-41v718h40q62 -33 98 -91q36 -61 36 -134q0 -106 -73 -181h50v-211q0 -28 18.5 -46.5t44.5 -18.5v-40zM186 493q0 118 -91 178v-359q91 63 91 181z" />
    <glyph glyph-name="s" unicode="s" horiz-adv-x="182" 
d="M145 239q0 -151 -131 -258l-25 32q116 95 116 226q0 59 -38 153.5t-38 156.5q0 118 84 187l27 -30q-70 -58 -70 -157q0 -63 37.5 -148t37.5 -162z" />
    <glyph glyph-name="t" unicode="t" horiz-adv-x="174" 
d="M181 678h-73v-678h-42v678h-73v40h188v-40z" />
    <glyph glyph-name="u" unicode="u" horiz-adv-x="293" 
d="M239 103q0 -43 -26.5 -75t-66.5 -32q-39 0 -65.5 32t-26.5 75v615h41v-615q0 -29 16 -47.5t35 -18.5q20 0 35.5 18.5t15.5 47.5v615h42v-615z" />
    <glyph glyph-name="v" unicode="v" horiz-adv-x="657" 
d="M675 710l-347 -731l-346 734l38 16l308 -653l310 650z" />
    <glyph glyph-name="w" unicode="w" horiz-adv-x="791" 
d="M809 712l-352 -733l-61 141l-64 -141l-350 735l38 16l312 -651l42 92l-252 543l38 16l236 -509l241 506l38 -16l-256 -540l38 -92l314 649z" />
    <glyph glyph-name="x" unicode="x" horiz-adv-x="286" 
d="M254 3l-41 -9l-70 327l-70 -327l-40 9l89 413l-65 299l41 12l45 -213l45 213l40 -12l-64 -296z" />
    <glyph glyph-name="y" unicode="y" horiz-adv-x="250" 
d="M271 712l-121 -354v-358h-42v358l-124 354l39 15l106 -305l103 305z" />
    <glyph glyph-name="z" unicode="z" horiz-adv-x="232" 
d="M235 718l-167 -678h136v-40h-191l167 678h-69q-27 0 -27 -24v-54h-42v54q0 64 69 64h124z" />
    <glyph glyph-name="uni0406" unicode="&#x406;" horiz-adv-x="154" 
d="M100 0h-42v677h-44v41h56q30 0 30 -29v-689z" />
    <glyph glyph-name="afii10103" unicode="&#x456;" horiz-adv-x="154" 
d="M100 0h-42v677h-44v41h56q30 0 30 -29v-689z" />
    <glyph glyph-name="afii10056" unicode="&#x407;" horiz-adv-x="144" 
d="M100 0h-42v677h-44v41h56q30 0 30 -29v-689zM185 818q0 -19 -14 -33.5t-34 -14.5q-19 0 -33 14t-14 34t14 33.5t33 13.5q20 0 34 -14t14 -33zM26 818q0 -19 -14 -33.5t-34 -14.5q-19 0 -33 14t-14 34t14 33.5t33 13.5q20 0 34 -14t14 -33z" />
    <glyph glyph-name="afii10098" unicode="&#x491;" horiz-adv-x="200" 
d="M68 677v-677h-42v718h77q27 0 27 23v54h43v-54q0 -64 -70 -64h-35z" />
    <glyph glyph-name="afii10050" unicode="&#x490;" horiz-adv-x="200" 
d="M68 677v-677h-42v718h77q27 0 27 23v54h43v-54q0 -64 -70 -64h-35z" />
    <glyph glyph-name="afii10104" unicode="&#x457;" horiz-adv-x="144" 
d="M100 0h-42v677h-44v41h56q30 0 30 -29v-689zM185 818q0 -19 -14 -33.5t-34 -14.5q-19 0 -33 14t-14 34t14 33.5t33 13.5q20 0 34 -14t14 -33zM26 818q0 -19 -14 -33.5t-34 -14.5q-19 0 -33 14t-14 34t14 33.5t33 13.5q20 0 34 -14t14 -33z" />
    <glyph glyph-name="afii10053" unicode="&#x404;" 
d="M61 345q3 -67 30 -126t72 -103t105 -69.5t128 -25.5q145 0 246 108l31 -28q-109 -121 -277 -121q-78 0 -147 30t-120 81t-81 120t-30 147q0 79 30 148t81.5 120t120.5 80.5t146 29.5q131 0 131 -99q0 -21 -4 -32h-44q4 11 4 28q0 62 -87 62q-66 0 -125 -24.5
t-103.5 -66.5t-72.5 -99t-33 -121h303v-39h-304z" />
    <glyph glyph-name="afii10101" unicode="&#x454;" 
d="M61 345q3 -67 30 -126t72 -103t105 -69.5t128 -25.5q145 0 246 108l31 -28q-109 -121 -277 -121q-78 0 -147 30t-120 81t-81 120t-30 147q0 79 30 148t81.5 120t120.5 80.5t146 29.5q131 0 131 -99q0 -21 -4 -32h-44q4 11 4 28q0 62 -87 62q-66 0 -125 -24.5
t-103.5 -66.5t-72.5 -99t-33 -121h303v-39h-304z" />
    <glyph glyph-name="afii10062" unicode="&#x40e;" horiz-adv-x="224" 
d="M474 708l-289 -719l-39 16l96 247l-236 454l41 21l219 -422l169 419zM438 884l-191 -170l-109 98l19 41l92 -82l165 146z" />
    <glyph glyph-name="afii10110" unicode="&#x45e;" horiz-adv-x="251" 
d="M37 717l40 9l76 -327l38 327l42 -9l-97 -724l-42 12l42 299zM183 815v-41h-99l1 41h98z" />
    <glyph glyph-name="afii10023" unicode="&#x401;" horiz-adv-x="217" 
d="M88 679l89 -1v40h-131v-718h131v40l-89 -1v234h74v39h-74l-1 366zM233 818q0 -19 -14 -33.5t-34 -14.5q-19 0 -33 14t-14 34t14 33.5t33 13.5q20 0 34 -14t14 -33zM74 818q0 -19 -14 -33.5t-34 -14.5q-19 0 -33 14t-14 34t14 33.5t33 13.5q20 0 34 -14t14 -33z" />
    <glyph glyph-name="afii10071" unicode="&#x451;" horiz-adv-x="217" 
d="M88 679l89 -1v40h-131v-718h131v40l-89 -1v234h74v39h-74l-1 366zM233 818q0 -19 -14 -33.5t-34 -14.5q-19 0 -33 14t-14 34t14 33.5t33 13.5q20 0 34 -14t14 -33zM74 818q0 -19 -14 -33.5t-34 -14.5q-19 0 -33 14t-14 34t14 33.5t33 13.5q20 0 34 -14t14 -33z" />
    <glyph glyph-name="afii61352" unicode="&#x2116;" horiz-adv-x="895" 
d="M867 464h-202v42h202v-42zM840 644q0 -29 -22 -50.5t-53 -21.5t-53.5 21.5t-22.5 50.5q0 31 22.5 52.5t53.5 21.5t53 -21.5t22 -52.5zM799 644q0 14 -10 24t-24 10t-24 -10t-10 -24q0 -32 34 -32t34 32zM624 -29l-529 645v-616h-42v666l-38 49l33 24l535 -653v632h41
v-747z" />
    <glyph glyph-name="afii10066" unicode="&#x431;" horiz-adv-x="256" 
d="M195 718v-41h-122l-1 -144q70 -37 113 -110q42 -74 42 -157q0 -86 -42 -158q-42 -69 -114 -108h-41v718h165zM184 266q0 71 -29 127t-83 94v-440q54 37 83 93t29 126z" />
    <glyph glyph-name="afii10067" unicode="&#x432;" horiz-adv-x="237" 
d="M205 562q0 -46 -25.5 -84.5t-67.5 -57.5q88 -75 88 -195q0 -73 -36 -134q-36 -58 -98 -91h-40v718h29q64 0 107 -47t43 -109zM158 225q0 118 -91 181v-358q42 25 66.5 73t24.5 104zM164 562q0 43 -29.5 77.5t-67.5 36.5v-229q40 5 68.5 39.5t28.5 75.5z" />
    <glyph glyph-name="afii10068" unicode="&#x433;" horiz-adv-x="212" 
d="M175 677h-107v-677h-42v718h149v-41z" />
    <glyph glyph-name="afii10069" unicode="&#x434;" horiz-adv-x="434" 
d="M312 151l16 -109h5q70 -4 70 -68v-54h-43v54q0 25 -27 25l-238 1q-27 0 -27 -23v-53h-43v54q0 64 70 64h13l88 676h37zM149 42h139l-73 540z" />
    <glyph glyph-name="afii10070" unicode="&#x435;" horiz-adv-x="217" 
d="M87 678l1 -366h81v-39h-81v-234l89 1v-40h-131v718h131v-40l-89 1z" />
    <glyph glyph-name="afii10072" unicode="&#x436;" horiz-adv-x="593" 
d="M277 1v374h-157v-273q0 -46 -30 -75.5t-74 -29.5v40q25 0 44 19.5t19 45.5v313h69l-106 304h45l106 -299h84v299h41v-299h85l106 299h45l-106 -304h65v-313q0 -26 19 -45.5t44 -19.5v-40q-44 0 -74 29.5t-30 75.5v273h-154v-374h-41z" />
    <glyph glyph-name="afii10073" unicode="&#x437;" horiz-adv-x="451" 
d="M430 253q0 -53 -20 -99.5t-53 -81t-76.5 -54.5t-90.5 -20q-35 0 -74 14t-69 43q-22 24 -29.5 50.5t-4 51t16.5 44.5t33 31.5t45 11.5t52 -15l-13 -35q-19 13 -36.5 12.5t-31 -10t-21 -25t-7.5 -31.5q0 -25 14.5 -44t36 -31.5t45.5 -18.5t43 -6q39 0 75 16.5t63.5 45.5
t44 68t16.5 83q-1 42 -18.5 78t-46 62.5t-67 42.5t-81.5 18l8 38q19 -4 32 -4q32 0 53 15t30.5 37t8 48t-14 47t-35 34t-54.5 10q-14 -2 -26.5 -9t-21 -19t-11 -27.5t3.5 -33.5h-43q-7 25 -2.5 47.5t17.5 39t32.5 26.5t43.5 12q34 3 62.5 -6t49 -26.5t32 -43t11.5 -56.5
q0 -83 -69 -116q74 -38 110.5 -88.5t36.5 -125.5z" />
    <glyph glyph-name="afii10074" unicode="&#x438;" horiz-adv-x="578" 
d="M72 69l431 210v437h42v-718h-42v231l-475 -229v717h44v-648z" />
    <glyph glyph-name="afii10075" unicode="&#x439;" horiz-adv-x="578" 
d="M72 71l431 206v439h42v-718h-42v231l-475 -229v717h44v-646zM486 884l-191 -170l-109 98l19 41l92 -82l165 146z" />
    <glyph glyph-name="afii10076" unicode="&#x43a;" horiz-adv-x="280" 
d="M35 719h41l-1 -287l110 287h42l-112 -303h72l1 -314q0 -26 19 -45.5t44 -19.5v-40q-44 0 -74 29.5t-30 75.5l-1 274h-71l1 -375h-41v718z" />
    <glyph glyph-name="afii10077" unicode="&#x43b;" horiz-adv-x="261" 
d="M222 0h-42v620q0 31 -14.5 49t-36.5 18t-36.5 -18t-14.5 -49v-620h-41v620q0 43 25.5 75t66.5 32t67 -32t26 -75v-620z" />
    <glyph glyph-name="afii10079" unicode="&#x43d;" horiz-adv-x="281" 
d="M267 273h-47v-273h-42v273h-80v-273h-42v273h-48v39h48v406h42v-406h80v406h42v-406h47v-39z" />
    <glyph glyph-name="afii10081" unicode="&#x43f;" horiz-adv-x="673" 
d="M638 677h-47l1 -678h-41l-4 678l-428 1l1 -678h-42l-1 678h-48v39l609 -1v-39z" />
    <glyph glyph-name="afii10082" unicode="&#x440;" horiz-adv-x="224" 
d="M200 493q0 -71 -36 -132.5t-97 -92.5v-268h-42v718h41q62 -33 98 -91q36 -61 36 -134zM158 493q0 118 -91 179v-360q91 63 91 181z" />
    <glyph glyph-name="afii10083" unicode="&#x441;" 
d="M685 101q-110 -121 -277 -121q-157 0 -267.5 111t-110.5 267q0 157 110.5 267.5t267.5 110.5q131 0 131 -99q0 -20 -4 -32h-44q4 12 4 28q0 62 -87 62q-139 0 -237 -99t-98 -238t98 -238t237 -99q146 0 246 108z" />
    <glyph glyph-name="afii10084" unicode="&#x442;" horiz-adv-x="239" 
d="M215 678h-73v-678h-42v678h-73v40h188v-40z" />
    <glyph glyph-name="afii10087" unicode="&#x445;" horiz-adv-x="266" 
d="M245 3l-41 -9l-70 327l-70 -327l-40 9l89 413l-65 299l41 12l45 -213l45 213l40 -12l-64 -296z" />
    <glyph glyph-name="afii10088" unicode="&#x446;" horiz-adv-x="280" 
d="M192 1l1 -1h-42l-1 1h-80l1 -1h-42l-1 1l1 717h42l-1 -678h80l1 678h42l-1 -678q70 0 70 -64v-54h-43v54q0 23 -27 23v2z" />
    <glyph glyph-name="afii10089" unicode="&#x447;" horiz-adv-x="241" 
d="M210 0h-42v302q-11 -12 -24 -20t-26 -8q-18 0 -34.5 6t-29.5 19t-21 32t-8 45v341h41l1 -341q0 -32 16 -48.5t35 -16.5q17 0 31.5 16t18.5 41v350h42v-718z" />
    <glyph glyph-name="afii10090" unicode="&#x448;" horiz-adv-x="380" 
d="M211 720l-2 -680h91v679h43v-719h-311l-1 -1v721h43v-680h89l4 680h44z" />
    <glyph glyph-name="afii10091" unicode="&#x449;" horiz-adv-x="412" 
d="M154 719h42l-1 -678h80l1 678h42l-1 -678q70 0 70 -64v-54h-43v54q0 23 -27 23v2l1 -1l-288 -1l-1 1l1 720h42l2 -681h77l1 678z" />
    <glyph glyph-name="afii10092" unicode="&#x44a;" horiz-adv-x="361" 
d="M133 679h-32q-27 0 -27 -23v-54h-43v54q0 64 70 62h73v-185q70 -37 113 -110q42 -74 42 -157q0 -86 -42 -158q-42 -69 -114 -108h-41zM286 266q0 71 -29 127t-83 94v-440q54 37 83 93t29 126z" />
    <glyph glyph-name="afii10093" unicode="&#x44b;" horiz-adv-x="351" 
d="M30 0v718h42v-185q70 -37 113 -110q42 -74 42 -157q0 -86 -42 -158q-42 -69 -114 -108h-41zM184 266q0 71 -29 127t-83 94v-440q54 37 83 93t29 126zM319 -1h-42v718h42v-718z" />
    <glyph glyph-name="afii10094" unicode="&#x44c;" horiz-adv-x="263" 
d="M35 0v718h42v-185q70 -37 113 -110q42 -74 42 -157q0 -86 -42 -158q-42 -69 -114 -108h-41zM189 266q0 71 -29 127t-83 94v-440q54 37 83 93t29 126z" />
    <glyph glyph-name="afii10095" unicode="&#x44d;" horiz-adv-x="566" 
d="M281 717q48 -6 85.5 -25.5t69.5 -48.5q58 -54 85 -133t23 -167q-3 -72 -30 -137t-73 -113.5t-108.5 -77t-137.5 -28.5q-35 0 -74 14t-69 43q-22 24 -29.5 50.5t-4 51t16.5 44.5t33 31.5t45 11.5t52 -15l-13 -35q-19 13 -36.5 12.5t-31 -10t-21 -25t-7.5 -31.5
q0 -25 14.5 -44.5t36 -33t45.5 -20.5t43 -7q75 1 136 35t102 90q30 42 47.5 93.5t17.5 106.5h-257v39h256q2 40 -10 82t-33.5 80t-52 68t-67 45.5t-76.5 13t-81 -29.5q-25 -17 -41 -42.5t-21 -63.5l-44 -1q4 44 21.5 77.5t45.5 56t64.5 33.5t78.5 10z" />
    <glyph glyph-name="afii10096" unicode="&#x44e;" horiz-adv-x="951" 
d="M22 351v39h55v328h42v-328h55q10 136 109 235q111 111 268 111t267.5 -110.5t110.5 -267.5t-110.5 -267.5t-267.5 -110.5t-268 110q-108 108 -110 261h-54v-351h-42v351h-55zM886 358q0 139 -98 237t-237 98t-237 -98q-87 -87 -97 -205h72v-39h-73q2 -135 98 -230
q98 -98 237 -98t237 98t98 237z" />
    <glyph glyph-name="afii10097" unicode="&#x44f;" horiz-adv-x="259" 
d="M15 36q26 0 44.5 18.5t18.5 46.5v211h50q-73 75 -73 181q0 73 36 134q36 58 98 91h40v-718h-41v272h-69v-171q0 -46 -30 -75.5t-74 -29.5v40zM97 493q0 -118 91 -181v359q-91 -60 -91 -178z" />
    <glyph glyph-name="afii10037" unicode="&#x423;" horiz-adv-x="478" 
d="M474 708l-289 -719l-39 16l96 247l-236 454l41 21l219 -422l169 419z" />
    <glyph glyph-name="afii10065" unicode="&#x430;" horiz-adv-x="286" 
d="M268 151h-33l21 -151h-41l-21 151h-106l-19 -151h-42l19 151h-34v39h39l68 528h37l74 -528h38v-39zM188 190l-50 392l-46 -392h96z" />
    <glyph glyph-name="afii10086" unicode="&#x444;" horiz-adv-x="485" 
d="M222 638q-53 -20 -86.5 -67t-48.5 -107t-13 -125.5t19.5 -121.5t50 -95.5t78.5 -47.5v564zM222 0v38q-67 13 -110.5 62t-64 115.5t-18.5 142t24.5 142.5t65 116t103.5 63v39h42v-39q50 -14 86.5 -47.5t60.5 -79t35 -99t10 -108.5t-14 -107.5t-37 -94.5t-59.5 -70
t-81.5 -35v-38h-42zM264 75q46 8 78.5 47.5t50 95.5t19.5 121t-13 125t-48.5 107t-86.5 67v-563z" />
    <glyph glyph-name="afii10085" unicode="&#x443;" horiz-adv-x="232" 
d="M14 717l40 9l76 -327l38 327l42 -9l-97 -724l-42 12l42 299z" />
    <glyph glyph-name="afii10080" unicode="&#x43e;" horiz-adv-x="800" 
d="M778 358q0 -157 -110.5 -267.5t-267.5 -110.5t-267.5 110.5t-110.5 267.5t110.5 267.5t267.5 110.5t267.5 -110.5t110.5 -267.5zM735 358q0 139 -98 237t-237 98t-237 -98t-98 -237t98 -237t237 -98t237 98t98 237z" />
    <glyph glyph-name="m" unicode="m" horiz-adv-x="393" 
d="M197 315l-128 287l1 -602h-41v718h36l132 -304l129 304h38l-3 -718h-42l1 608z" />
    <glyph glyph-name="H" unicode="H" horiz-adv-x="281" 
d="M270 273h-47v-273h-42v273h-80v-273h-42v273h-48v39h48v406h42v-406h80v406h42v-406h47v-39z" />
    <glyph glyph-name="afii10078" unicode="&#x43c;" horiz-adv-x="393" 
d="M197 315l-128 287l1 -602h-41v718h36l132 -304l129 304h38l-3 -718h-42l1 608z" />
    <glyph glyph-name="M" unicode="M" horiz-adv-x="766" 
d="M381 315l-127 321l-211 -643l-39 11l245 747l131 -324l132 323l245 -747l-39 -11l-211 643z" />
    <glyph glyph-name="N" unicode="N" horiz-adv-x="224" 
d="M71 0h-42v718l122 -231v231h42v-718h-42v403l-80 144v-547z" />
    <glyph glyph-name="n" unicode="n" horiz-adv-x="224" 
d="M71 0h-42v718l122 -231v231h42v-718h-42v403l-80 144v-547z" />
    <glyph glyph-name="o" unicode="o" horiz-adv-x="800" 
d="M778 358q0 -157 -110.5 -267.5t-267.5 -110.5t-267.5 110.5t-110.5 267.5t110.5 267.5t267.5 110.5t267.5 -110.5t110.5 -267.5zM735 358q0 139 -98 237t-237 98t-237 -98t-98 -237t98 -237t237 -98t237 98t98 237z" />
    <glyph glyph-name="Y" unicode="Y" horiz-adv-x="478" 
d="M474 708l-289 -719l-39 16l96 247l-236 454l41 21l219 -422l169 419z" />
    <glyph glyph-name="a" unicode="a" horiz-adv-x="286" 
d="M268 151h-33l21 -151h-41l-21 151h-106l-19 -151h-42l19 151h-34v39h39l68 528h37l74 -528h38v-39zM188 190l-50 392l-46 -392h96z" />
    <glyph glyph-name="b" unicode="b" horiz-adv-x="237" 
d="M205 562q0 -46 -25.5 -84.5t-67.5 -57.5q88 -75 88 -195q0 -73 -36 -134q-36 -58 -98 -91h-40v718h29q64 0 107 -47t43 -109zM158 225q0 118 -91 181v-358q42 25 66.5 73t24.5 104zM164 562q0 43 -29.5 77.5t-67.5 36.5v-229q40 5 68.5 39.5t28.5 75.5z" />
  </font>
</defs>
</svg>
